<svg id="Layer_1" data-name="Layer 1" xmlns="http://www.w3.org/2000/svg" viewBox="0 0 2006 1190"><defs><style>.cls-1{fill:#0098d9;}.cls-2{fill:#e6007f;}</style></defs><title>inner bg</title><path id="Path_2460" data-name="Path 2460" class="cls-1" d="M1915.11,1118.62a49.59,49.59,0,1,0-49.58-49.58h0A49.63,49.63,0,0,0,1915.11,1118.62Zm0-62.17a12.59,12.59,0,1,1-12.6,12.59,12.59,12.59,0,0,1,12.6-12.59Z"/><g id="Group_125" data-name="Group 125"><path id="Path_2456" data-name="Path 2456" class="cls-2" d="M1751.7,372h15.35a9.92,9.92,0,0,0,0-19.82H1751.7a9.92,9.92,0,0,0,0,19.82Z"/><path id="Path_2457" data-name="Path 2457" class="cls-2" d="M1809.29,372h17.27a9.92,9.92,0,0,0,0-19.82h-17.27a9.92,9.92,0,0,0,0,19.82Z"/><path id="Path_2458" data-name="Path 2458" class="cls-2" d="M1788.3,409.18a9.86,9.86,0,0,0,9.91-9.6V384.22a9.92,9.92,0,0,0-19.82,0v15.36A9.88,9.88,0,0,0,1788.3,409.18Z"/><path id="Path_2459" data-name="Path 2459" class="cls-2" d="M1788.3,351.6a9.85,9.85,0,0,0,9.91-9.6V324.73a9.92,9.92,0,0,0-19.82,0V342A9.86,9.86,0,0,0,1788.3,351.6Z"/></g><g id="Group_126" data-name="Group 126"><path id="Path_2456-2" data-name="Path 2456-2" class="cls-1" d="M87.75,1150.21l16.07-16.08a14.69,14.69,0,0,0-20.77-20.77L67,1129.43a14.7,14.7,0,0,0,20.78,20.78Z"/><path id="Path_2457-2" data-name="Path 2457-2" class="cls-1" d="M113.91,1124l18.11-18.1a14.7,14.7,0,0,0-20.78-20.78l-18.1,18.11A14.69,14.69,0,0,0,113.91,1124Z"/><path id="Path_2458-2" data-name="Path 2458-2" class="cls-1" d="M131,1150.86a14.66,14.66,0,0,0,.33-20.45l-16.07-16.08a14.7,14.7,0,0,0-20.78,20.78l16.07,16.08A14.66,14.66,0,0,0,131,1150.86Z"/><path id="Path_2459-2" data-name="Path 2459-2" class="cls-1" d="M104.79,1124.68a14.66,14.66,0,0,0,.33-20.45L87,1086.13a14.7,14.7,0,0,0-20.78,20.78l18.1,18.1A14.66,14.66,0,0,0,104.79,1124.68Z"/></g><path id="Path_2461" data-name="Path 2461" class="cls-2" d="M70.1,92.42a28.8,28.8,0,1,0-28.8-28.8A28.79,28.79,0,0,0,70.1,92.42Zm0-36.12a7.32,7.32,0,1,1-7.31,7.32A7.32,7.32,0,0,1,70.1,56.3Z"/></svg>