<svg id="Layer_1" data-name="Layer 1" xmlns="http://www.w3.org/2000/svg" viewBox="0 0 1811 2136"><defs><style>.cls-1{fill:#0098d9;}.cls-2{fill:#e6007f;}</style></defs><title>login bg</title><path id="Path_2460" data-name="Path 2460" class="cls-1" d="M1534.91,2079.72a49.59,49.59,0,1,0-49.59-49.59h0A49.65,49.65,0,0,0,1534.91,2079.72Zm0-62.18a12.59,12.59,0,1,1-12.6,12.6,12.58,12.58,0,0,1,12.6-12.6Z"/><g id="Group_125" data-name="Group 125"><path id="Path_2456" data-name="Path 2456" class="cls-2" d="M1683.5,184.06h15.35a9.92,9.92,0,0,0,0-19.82H1683.5a9.92,9.92,0,0,0,0,19.82Z"/><path id="Path_2457" data-name="Path 2457" class="cls-2" d="M1741.08,184.06h17.28a9.92,9.92,0,0,0,0-19.82h-17.28a9.92,9.92,0,0,0,0,19.82Z"/><path id="Path_2458" data-name="Path 2458" class="cls-2" d="M1720.1,221.27a9.87,9.87,0,0,0,9.91-9.6V196.32a9.92,9.92,0,0,0-19.82,0v15.35A9.86,9.86,0,0,0,1720.1,221.27Z"/><path id="Path_2459" data-name="Path 2459" class="cls-2" d="M1720.1,163.7a9.88,9.88,0,0,0,9.91-9.6V136.83a9.92,9.92,0,0,0-19.82,0V154.1A9.86,9.86,0,0,0,1720.1,163.7Z"/></g><g id="Group_126" data-name="Group 126"><path id="Path_2456-2" data-name="Path 2456-2" class="cls-1" d="M68.55,125.31l16.07-16.08A14.7,14.7,0,0,0,63.85,88.45L47.77,104.53a14.7,14.7,0,0,0,20.78,20.78Z"/><path id="Path_2457-2" data-name="Path 2457-2" class="cls-1" d="M94.71,99.14,112.82,81A14.7,14.7,0,0,0,92,60.26l-18.1,18.1A14.7,14.7,0,0,0,94.71,99.14Z"/><path id="Path_2458-2" data-name="Path 2458-2" class="cls-1" d="M111.76,126a14.66,14.66,0,0,0,.33-20.45L96,89.43a14.7,14.7,0,0,0-20.78,20.78l16.08,16.07A14.66,14.66,0,0,0,111.76,126Z"/><path id="Path_2459-2" data-name="Path 2459-2" class="cls-1" d="M85.58,99.78a14.65,14.65,0,0,0,.34-20.45L67.81,61.23A14.7,14.7,0,0,0,47,82l18.1,18.1A14.65,14.65,0,0,0,85.58,99.78Z"/></g><path id="Path_2461" data-name="Path 2461" class="cls-2" d="M154.9,859.52a28.8,28.8,0,1,0-28.8-28.8A28.8,28.8,0,0,0,154.9,859.52Zm0-36.12a7.32,7.32,0,1,1-7.32,7.31A7.31,7.31,0,0,1,154.9,823.4Z"/></svg>