<svg id="Layer_1" data-name="Layer 1" xmlns="http://www.w3.org/2000/svg" viewBox="0 0 72 72"><defs><style>.cls-1{fill:#0098d9;}</style></defs><title>Mail</title><path class="cls-1" d="M13.06,58a4.78,4.78,0,0,1-3.28-1.23L25.62,40.89l1.09.79c1.19.88,2.15,1.56,2.89,2a17,17,0,0,0,2.95,1.5A8.79,8.79,0,0,0,36,46H36a8.83,8.83,0,0,0,3.43-.76,17.41,17.41,0,0,0,3-1.5q1.11-.72,2.88-2l1.1-.79L62.23,56.73A4.74,4.74,0,0,1,59,58Z"/><path class="cls-1" d="M50,38.35q4.47-3.12,10.83-7.43A17.55,17.55,0,0,0,64,28.21V52.3Z"/><path class="cls-1" d="M8.06,28.21a16.65,16.65,0,0,0,3.15,2.71q6.63,4.5,10.81,7.42l-14,14Z"/><path class="cls-1" d="M36,42h0a4.93,4.93,0,0,1-1.56-.28,8.83,8.83,0,0,1-1.79-.84c-.63-.37-1.17-.71-1.62-1s-1-.7-1.68-1.19l-.86-.62L28,37.72l-3.16-2.2-5-3.49c-3.55-2.46-5.69-4-6.39-4.45A15.22,15.22,0,0,1,9.77,24a7.25,7.25,0,0,1-1.72-4.25,6.32,6.32,0,0,1,1.3-4.06,4.46,4.46,0,0,1,3.7-1.62H59a4.87,4.87,0,0,1,3.51,1.46A4.8,4.8,0,0,1,63.94,19a8.22,8.22,0,0,1-1.53,4.71,14.72,14.72,0,0,1-3.8,3.83l-11.44,8L44,37.72l-.46.34-.87.61c-.67.49-1.23.88-1.67,1.19s-1,.64-1.63,1a8.59,8.59,0,0,1-1.79.84A4.88,4.88,0,0,1,36,42Z"/></svg>