<svg xmlns="http://www.w3.org/2000/svg" viewBox="0 0 72 72"><defs><style>.cls-1{isolation:isolate;}.cls-2,.cls-3{fill:#8c8c8c;fill-rule:evenodd;}.cls-3{mix-blend-mode:multiply;}</style></defs><title>Icon 1 C</title><g class="cls-1"><g id="Layer_1" data-name="Layer 1"><path class="cls-2" d="M63.21,40.55h0c-5.66,6.56-13.28,13-17.45,16.71-2.69,2.39-8.06,8.35-9.55,8.35s-6.42-5.22-9.4-7.91l-.3-.44A169.94,169.94,0,0,1,8.76,40.55H25.62c.45,0,.74-.3,1-.75L28,37l2.09,11.49a1.14,1.14,0,0,0,1.2.89,1.31,1.31,0,0,0,1.19-.89l1.79-14.92,1.64,9.85a1,1,0,0,0,.9.89,1.58,1.58,0,0,0,1.34-.74l1.64-4,1.79,5.66c.3.45.6.75,1.05.75a1.13,1.13,0,0,0,1-.75l2.54-4.62Z"/><path class="cls-3" d="M70.37,25.63h0c-.59,3.13-2.54,6.42-5.37,10H45.61a1.34,1.34,0,0,0-1,.46l-1.64,3.13L41,33.39a1.17,1.17,0,0,0-2.24-.15L37.4,36.52,35.31,23.39a1.27,1.27,0,0,0-1-.89h-.15a1,1,0,0,0-1,.89L31.14,38.61l-1.65-8.06c-.14-.59-.44-.89-.89-.89a1,1,0,0,0-1.19.6l-2.54,5.36H7c-2.83-3.57-4.92-7-5.37-10C.55,20,1.45,15.49,4.14,12.2c2.53-3.28,7-5.22,13.27-5.81h1.64A19.44,19.44,0,0,1,33.37,12.5a3.41,3.41,0,0,0,2.54,1.2,3.82,3.82,0,0,0,2.84-1.2C42,8.62,47.55,6.39,53.07,6.39h1.34C60.82,7,65.15,8.92,68,12.2S71.42,20,70.37,25.63Z"/></g></g></svg>