<svg xmlns="http://www.w3.org/2000/svg" viewBox="0 0 72 72"><defs><style>.cls-1{isolation:isolate;}.cls-2{mix-blend-mode:multiply;}.cls-3{fill:#8c8c8c;}</style></defs><title>Icon 4 C</title><g class="cls-1"><g id="Layer_1" data-name="Layer 1"><g class="cls-2"><path class="cls-3" d="M36.17,39.83A12.29,12.29,0,1,0,48.46,52.11,12.3,12.3,0,0,0,36.17,39.83Zm0,23A10.71,10.71,0,1,1,46.88,52.11,10.72,10.72,0,0,1,36.17,62.82Z"/><path class="cls-3" d="M40,50.79l-2.76,0v.43l-.58,1.2-.1.24.54,9.2A10.66,10.66,0,0,0,41,60.76v-4h.72v3.61a10.81,10.81,0,0,0,3.3-3c0-.48,0-1,0-1.43A4.91,4.91,0,0,0,40,50.79Z"/><path class="cls-3" d="M35.58,52.39,35,51.19v-.43H32.38a4.86,4.86,0,0,0-5,4,.66.66,0,0,1-.09.19V57a10.77,10.77,0,0,0,3.32,3.23V56.75h.75v3.94a10.54,10.54,0,0,0,3.74,1.11l.53-9.17Z"/><path class="cls-3" d="M39.68,47.64a3.7,3.7,0,0,0-1.13-4.39,10.31,10.31,0,0,0-1.65-.86H35.45a4.31,4.31,0,0,1-.49.22,3.78,3.78,0,1,0,4.72,5Z"/><path class="cls-3" d="M13.89,7.6A10.39,10.39,0,0,0,9.14,27.23c.21.1.42.21.63.3a10.3,10.3,0,0,0,4,.85h.15a10.46,10.46,0,0,0,4-.8l.61-.28A10.39,10.39,0,0,0,13.89,7.6ZM18.5,25.78c-.2.12-.4.23-.61.33a9,9,0,0,1-3.3.91c-.23,0-.46,0-.7,0s-.65,0-1-.05a9.13,9.13,0,0,1-3.16-.94c-.21-.12-.43-.23-.63-.36A9.15,9.15,0,0,1,6.33,23a9,9,0,0,1-1.5-5A9.06,9.06,0,1,1,18.5,25.78Z"/><path class="cls-3" d="M17,16.94l-2.33,0v.37l-.49,1-.08.21.45,7.77a8.94,8.94,0,0,0,3.3-.9V22h.61v3.05a9.29,9.29,0,0,0,2.79-2.58c0-.4,0-.81,0-1.21A4.17,4.17,0,0,0,17,16.94Z"/><path class="cls-3" d="M13.31,18.3l-.5-1v-.37H10.6a4.1,4.1,0,0,0-4.19,3.38,1.3,1.3,0,0,1-.08.17v1.76A9,9,0,0,0,9.14,25V22h.63v3.33a8.92,8.92,0,0,0,3.16.94l.45-7.75Z"/><path class="cls-3" d="M16.77,14.29a3.12,3.12,0,0,0-.95-3.72,8.4,8.4,0,0,0-1.4-.72H13.2c-.14.06-.28.13-.42.18a3.2,3.2,0,1,0,4,4.26Z"/><path class="cls-3" d="M36,7.6A10.39,10.39,0,1,0,46.39,18,10.4,10.4,0,0,0,36,7.6Zm0,19.45A9.06,9.06,0,1,1,45.06,18,9.07,9.07,0,0,1,36,27.05Z"/><path class="cls-3" d="M39.23,16.87l-2.33,0v.37l-.49,1-.08.2.46,7.78a8.94,8.94,0,0,0,3.29-.9V21.93h.61v3a9.14,9.14,0,0,0,2.79-2.57V21.19A4.18,4.18,0,0,0,39.23,16.87Z"/><path class="cls-3" d="M35.5,18.23l-.5-1v-.37H32.8a4.1,4.1,0,0,0-4.2,3.38.48.48,0,0,1-.08.16v1.76a9.15,9.15,0,0,0,2.81,2.73v-3H32v3.33a9.07,9.07,0,0,0,3.15.94l.46-7.76Z"/><path class="cls-3" d="M39,14.21a3.12,3.12,0,0,0-1-3.71,8.44,8.44,0,0,0-1.4-.73H35.39A3.17,3.17,0,0,1,35,10a3.23,3.23,0,0,0-2.09,3.66,3.2,3.2,0,0,0,6.09.59Z"/><path class="cls-3" d="M58.11,7.6a10.38,10.38,0,0,0-7.56,17.51,10.83,10.83,0,0,0,2.81,2.12c.21.1.42.21.64.3a10.3,10.3,0,0,0,4,.85h.14a10.42,10.42,0,0,0,4-.8l.61-.28a10.54,10.54,0,0,0,2.79-2A10.39,10.39,0,0,0,58.11,7.6Zm4.61,18.18c-.2.12-.4.23-.61.33a9,9,0,0,1-3.29.91c-.24,0-.47,0-.71,0s-.64,0-1-.05A9.07,9.07,0,0,1,54,26.06c-.22-.12-.43-.23-.64-.36A9.26,9.26,0,0,1,50.55,23a9.06,9.06,0,1,1,15,.24A9.14,9.14,0,0,1,62.72,25.78Z"/><path class="cls-3" d="M61.27,16.94l-2.33,0v.37l-.5,1-.08.21.46,7.77a8.94,8.94,0,0,0,3.29-.9V22h.61v3.05a9.29,9.29,0,0,0,2.79-2.58V21.26A4.17,4.17,0,0,0,61.27,16.94Z"/><path class="cls-3" d="M57.53,18.3l-.5-1v-.37l-2.2,0a4.1,4.1,0,0,0-4.2,3.37.65.65,0,0,1-.08.17v1.76A9.12,9.12,0,0,0,53.36,25V22H54v3.33a8.86,8.86,0,0,0,3.15.94l.46-7.75Z"/><path class="cls-3" d="M61,14.29a3.14,3.14,0,0,0-1-3.72,8.4,8.4,0,0,0-1.4-.72H57.42c-.14.06-.27.13-.41.18a3.2,3.2,0,1,0,4,4.26Z"/><polygon class="cls-3" points="56.93 31.15 56.93 35.19 37.61 35.19 37.61 31.15 35.17 31.15 35.17 35.19 14.6 35.19 14.6 31.15 12.17 31.15 12.17 36.41 12.17 36.41 12.17 37.63 35.17 37.63 35.17 38.96 37.61 38.96 37.61 37.63 59.36 37.63 59.36 36.41 59.36 35.19 59.36 31.15 56.93 31.15"/></g></g></g></svg>