<svg xmlns="http://www.w3.org/2000/svg" viewBox="0 0 72 72"><defs><style>.cls-1{isolation:isolate;}.cls-2{mix-blend-mode:multiply;}.cls-3{fill:#8c8c8c;}</style></defs><title>Icon 2 C</title><g class="cls-1"><g id="Layer_1" data-name="Layer 1"><g class="cls-2"><path class="cls-3" d="M58.78,54.89l-4.08,0-.1-15.62a18.59,18.59,0,0,0-37.18.23l.1,15.62-4.08,0a1.28,1.28,0,0,0-1.28,1.3l.06,10.78a1.3,1.3,0,0,0,1.3,1.28l45.34-.28A1.29,1.29,0,0,0,60.14,67l-.06-10.78A1.29,1.29,0,0,0,58.78,54.89ZM20,39.51a16,16,0,0,1,32-.2l.1,15.62-32,.2ZM57.56,65.68l-42.76.26-.05-8.2,4.08,0,34.59-.21,4.08,0Z"/><path class="cls-3" d="M42.86,34.56A7.39,7.39,0,1,0,50.3,41.9,7.39,7.39,0,0,0,42.86,34.56Zm.08,12.2a4.81,4.81,0,1,1,4.78-4.84A4.81,4.81,0,0,1,42.94,46.76Z"/><path class="cls-3" d="M28.45,31.21a5.1,5.1,0,1,0,5.13,5.07A5.1,5.1,0,0,0,28.45,31.21Zm.05,7.62A2.52,2.52,0,1,1,31,36.29,2.53,2.53,0,0,1,28.5,38.83Z"/><path class="cls-3" d="M35.87,16.13a1.29,1.29,0,0,0,1.28-1.3L37.09,4.75a1.29,1.29,0,1,0-2.58,0l.06,10.08A1.29,1.29,0,0,0,35.87,16.13Z"/><path class="cls-3" d="M14.62,37.64a1.29,1.29,0,0,0-1.3-1.28l-10.08.06a1.29,1.29,0,1,0,0,2.58l10.08-.06A1.29,1.29,0,0,0,14.62,37.64Z"/><path class="cls-3" d="M68.74,36l-10.08.06a1.29,1.29,0,0,0,0,2.58l10.08-.06a1.29,1.29,0,1,0,0-2.58Z"/><path class="cls-3" d="M19,22.5a1.32,1.32,0,0,0,.92.37,1.29,1.29,0,0,0,.91-.38,1.3,1.3,0,0,0,0-1.83l-7.17-7.08a1.29,1.29,0,1,0-1.82,1.83Z"/><path class="cls-3" d="M51.94,22.67a1.29,1.29,0,0,0,.91-.38l7.08-7.18A1.29,1.29,0,1,0,58.1,13.3L51,20.47a1.3,1.3,0,0,0,0,1.83A1.32,1.32,0,0,0,51.94,22.67Z"/></g></g></g></svg>