<svg xmlns="http://www.w3.org/2000/svg" viewBox="0 0 72 72"><defs><style>.cls-1{isolation:isolate;}.cls-2,.cls-3{fill:#8c8c8c;fill-rule:evenodd;}.cls-3{mix-blend-mode:multiply;}</style></defs><title>Icon 3 C</title><g class="cls-1"><g id="Layer_1" data-name="Layer 1"><path class="cls-2" d="M59.93,27.53h0a116,116,0,0,1-10.66,10.2c-1.64,1.46-4.92,5.11-5.83,5.11S39.51,39.65,37.69,38l-.18-.27a102.61,102.61,0,0,1-10.84-10.2H37c.27,0,.45-.19.63-.46l.82-1.73,1.28,7a.69.69,0,0,0,.73.54.8.8,0,0,0,.73-.54l1.09-9.12,1,6a.59.59,0,0,0,.55.54,1,1,0,0,0,.82-.45l1-2.46,1.1,3.46c.18.27.36.46.63.46a.69.69,0,0,0,.64-.46l1.55-2.82Z"/><path class="cls-3" d="M64.3,18.41h0A14.92,14.92,0,0,1,61,24.52H49.17a.82.82,0,0,0-.63.27l-1,1.92-1.19-3.56a.77.77,0,0,0-.64-.54.83.83,0,0,0-.73.45l-.82,2-1.27-8a.78.78,0,0,0-.64-.55h-.09a.61.61,0,0,0-.64.55l-1.18,9.29-1-4.92c-.09-.36-.27-.55-.54-.55a.61.61,0,0,0-.73.37l-1.55,3.28H25.58c-1.74-2.19-3-4.28-3.29-6.11-.63-3.46-.08-6.19,1.55-8.2S28.13,7,32,6.66h1a11.91,11.91,0,0,1,8.75,3.73,2.09,2.09,0,0,0,1.55.74A2.31,2.31,0,0,0,45,10.39a11.65,11.65,0,0,1,8.75-3.73h.82c3.92.36,6.56,1.55,8.29,3.55s2.1,4.74,1.46,8.2Z"/><path class="cls-3" d="M70.13,48.21c-.45-1.18-2.46-1.91-4.55-1.73a11.56,11.56,0,0,0-1.73.36c-2.74.82-16.31,5.47-16.41,5.65h-.36l.18.28c1.55,1.27,2.37,2.64,2,3.73-.46,1.64-2.74,2.65-6.38,3a50.68,50.68,0,0,1-12.12-.91H32.5c3.46,0,6.65,0,9.2-.18,3.92-.28,5.74-1.19,6-2.65.09-1-.46-1.82-1.83-2.46s-4.46-1.18-7.47-1.64c-2-.36-3.92-.54-5.28-.91-4.74-1.27-9.57-2.55-15.22-2.09a24.82,24.82,0,0,0-2.55.36,111.85,111.85,0,0,0-13,3.1H1.79L8.35,61.6a16.24,16.24,0,0,1,3.56-.54,18.48,18.48,0,0,1,4.46,0c1.73.36,6.29,1.27,10.57,2.1,4.56,1,8.84,1.82,10.48,2.09.91.09,1.82.09,2.74.09,2.18-.18,4.46-1.46,6.56-2.55.72-.36,1.36-.73,2-1.09L68.13,51.22c2.19-1.37,2.19-2.46,2-3Z"/></g></g></svg>