<svg id="Layer_1" data-name="Layer 1" xmlns="http://www.w3.org/2000/svg" viewBox="0 0 72 72"><defs><style>.cls-1{fill:#0098d9;}</style></defs><title>Twitter</title><path class="cls-1" d="M5.27,56.85a19.88,19.88,0,0,0,17.57-5.67A12.22,12.22,0,0,1,11.5,41.91a9.33,9.33,0,0,0,5.28-.43A13.06,13.06,0,0,1,7,28.14a7.7,7.7,0,0,0,5.54,1.54,14.32,14.32,0,0,1-3.85-18A35.68,35.68,0,0,0,35.56,25.81h0a14.18,14.18,0,0,1-.33-3A13.21,13.21,0,0,1,47.9,9.1a12.21,12.21,0,0,1,9.17,4.22h0a19.68,19.68,0,0,0,7.92-3,14.42,14.42,0,0,1-5.29,7.42,20.77,20.77,0,0,0,7-2.15,22.77,22.77,0,0,1-6.15,7V23c.86,22-15,39.89-35.49,39.89a36,36,0,0,1-19.84-6Z"/></svg>